<?xml version="1.0" standalone="no"?><!DOCTYPE svg PUBLIC "-//W3C//DTD SVG 1.1//EN" "http://www.w3.org/Graphics/SVG/1.1/DTD/svg11.dtd"><svg t="1702211589172" class="icon" viewBox="0 0 1024 1024" version="1.1" xmlns="http://www.w3.org/2000/svg" p-id="1566" xmlns:xlink="http://www.w3.org/1999/xlink" width="200" height="200"><path d="M375.47008 238.94016v498.80064c-28.60032-12.94336-63.7952-20.9408-102.4-20.9408C178.80064 716.8 102.4 762.66496 102.4 819.2c0 56.59648 76.40064 102.4 170.67008 102.4 94.2592 0 170.65984-45.80352 170.65984-102.4V362.5984l409.6-102.4v341.00224c-28.60032-12.93312-63.7952-20.93056-102.4-20.93056-94.2592 0-170.65984 45.86496-170.65984 102.4 0 56.59648 76.40064 102.4 170.65984 102.4 94.30016 0 170.67008-45.80352 170.67008-102.4V102.4L375.47008 238.94016z" p-id="1567"></path></svg>
